<svg xmlns="http://www.w3.org/2000/svg" viewBox="0 0 192 192">
  <defs>
    <linearGradient id="grad" x1="0%" y1="0%" x2="100%" y2="100%">
      <stop offset="0%" stop-color="#0f172a" />
      <stop offset="100%" stop-color="#334155" />
    </linearGradient>
  </defs>
  <rect width="192" height="192" rx="40" fill="url(#grad)" />
  <path d="M58 96c0-21 17-38 38-38s38 17 38 38-17 38-38 38-38-17-38-38zm38-52c-28.7 0-52 23.3-52 52s23.3 52 52 52 52-23.3 52-52-23.3-52-52-52zm0 32c11 0 20 9 20 20s-9 20-20 20-20-9-20-20 9-20 20-20z" fill="#f8fafc" fill-rule="evenodd" />
</svg>
